<?xml version="1.0" encoding="UTF-8" standalone="no"?>
<svg
   xmlns:dc="http://purl.org/dc/elements/1.1/"
   xmlns:cc="http://creativecommons.org/ns#"
   xmlns:rdf="http://www.w3.org/1999/02/22-rdf-syntax-ns#"
   xmlns:svg="http://www.w3.org/2000/svg"
   xmlns="http://www.w3.org/2000/svg"
   xmlns:sodipodi="http://sodipodi.sourceforge.net/DTD/sodipodi-0.dtd"
   xmlns:inkscape="http://www.inkscape.org/namespaces/inkscape"
   id="a"
   viewBox="0 0 155.57 33.9"
   version="1.1"
   sodipodi:docname="wmbr_logo_wmbr.svg"
   inkscape:version="1.0.2-2 (e86c870879, 2021-01-15)">
  <metadata
     id="metadata886">
    <rdf:RDF>
      <cc:Work
         rdf:about="">
        <dc:format>image/svg+xml</dc:format>
        <dc:type
           rdf:resource="http://purl.org/dc/dcmitype/StillImage" />
        <dc:title></dc:title>
      </cc:Work>
    </rdf:RDF>
  </metadata>
  <sodipodi:namedview
     pagecolor="#ffffff"
     bordercolor="#666666"
     borderopacity="1"
     objecttolerance="10"
     gridtolerance="10"
     guidetolerance="10"
     inkscape:pageopacity="0"
     inkscape:pageshadow="2"
     inkscape:window-width="1730"
     inkscape:window-height="754"
     id="namedview884"
     showgrid="false"
     inkscape:zoom="6.3765507"
     inkscape:cx="77.785"
     inkscape:cy="16.95"
     inkscape:window-x="0"
     inkscape:window-y="0"
     inkscape:window-maximized="0"
     inkscape:current-layer="a" />
  <defs
     id="defs873">
    <style
       id="style871">.b{fill:#05522A;}</style>
  </defs>
  <polygon
     class="b"
     points="22.7 18.9 31.2 33.7 44.1 5.8 42.4 5.8 36 19.6 28.3 5.3 19.9 19.8 12.8 5.8 0 5.8 14.2 33.9 22.7 18.9"
     id="polygon875" />
  <path
     class="b"
     d="M57.4,31.8V11.3s1.8-2.3,4.8-2.4c.9,0,2.1.4,2.5,1.4v21.5h11.8V11.6s2.3-2.1,4.6-2.3c1.6-.1,2.7,1,2.8,1.6v20.8h11.8V11.2c-.3-2.2-2.4-4.1-4.7-5-2.6-1-6.8-.7-9.2.3-2.7,1.1-5.8,3.1-5.8,3.1,0,0-1.8-2.5-4.4-3.3-2.6-.9-5.6-1-8.3-.2-2.7.9-5.9,2.9-5.9,2.9v-3.2h-11.9v26h11.9Z"
     id="path877" />
  <path
     class="b"
     d="M110.3,31.8v-2.5s1.8,1.8,4.7,2.6c3.5.9,9.3.1,12.8-4.1,3.9-4.7,4.2-12.1-.4-17.4-3.5-4.1-8.7-5.4-13.2-4.2-2.2.6-3.5,1.7-3.9,2.2V0h-11.8v31.8h11.8ZM113,8.4c2-1,3.2-.6,3.9-.2,1.1.7,1,1.6,1,1.6v18.2s.1.7-.8,1.5c-1.1,1-2.9.7-4.2-.2-1.8-1.2-2.6-2.4-2.6-2.4V10.8c.4-.5,1.4-1.8,2.7-2.4Z"
     id="path879" />
  <path
     class="b"
     d="M144.5,14s.6-2.5,3.8-4.7c2.4-1.6,3.8-1,4.1-.5.5,1.1,2.3,1.2,2.9.2.5-.8.3-2.1-.5-2.6-1.4-.9-3.9-1-6.7.9-2.8,2-3.5,2.9-3.5,2.9v-4.4h-11.6v26h11.5V14Z"
     id="path881" />
</svg>
